# xmcd
#
# Track frame offsets:
#	150
#	23892
#	44699
#	71404
#	94639
#	117174
#	131884
#	155487
#	173377
#	189082
#	217957
#	238632
#	256560
#	268248
#	285733
#	308348
#	322150
#
# Disc length: 4357 seconds
#
# Revision: 0
# Processed by: cddbd v1.5.1PL0 Copyright (c) Steve Scherf et al.
# Submitted via: dBpowerAMP V4.0
#
DISCID=e6110311
DTITLE=VAN MORRISON - NOHA and HAMILTON 2
DYEAR=1900
DGENRE=blues
TTITLE0=No Religion
TTITLE1=This Weight
TTITLE2=Waiting Game
TTITLE3=Brand New Day
TTITLE4=If You Love Me
TTITLE5=Days Like This
TTITLE6=Sometimes We Cry
TTITLE7=Melancholia
TTITLE8=Into the Mystic
TTITLE9=In The Afternoon
TTITLE10=Moondance
TTITLE11=Russian Roulette
TTITLE12=Crazy Love
TTITLE13=Piper at the Gates Of Dawn
TTITLE14=Caravan
TTITLE15=Brown Eyed Girl
TTITLE16=Epilogo de Pinocho
EXTD=
EXTT0=
EXTT1=
EXTT2=
EXTT3=
EXTT4=
EXTT5=
EXTT6=
EXTT7=
EXTT8=
EXTT9=
EXTT10=
EXTT11=
EXTT12=
EXTT13=
EXTT14=
EXTT15=
EXTT16=
PLAYORDER=
